<?xml version="1.0" standalone="no"?><svg xmlns="http://www.w3.org/2000/svg" viewBox="0 0 1440 320"><path fill="#ffd700" fill-opacity="1" d="M0,192L0,160L36.9,160L36.9,128L73.8,128L73.8,64L110.8,64L110.8,96L147.7,96L147.7,160L184.6,160L184.6,320L221.5,320L221.5,192L258.5,192L258.5,224L295.4,224L295.4,224L332.3,224L332.3,0L369.2,0L369.2,288L406.2,288L406.2,224L443.1,224L443.1,64L480,64L480,160L516.9,160L516.9,224L553.8,224L553.8,256L590.8,256L590.8,288L627.7,288L627.7,320L664.6,320L664.6,192L701.5,192L701.5,96L738.5,96L738.5,288L775.4,288L775.4,320L812.3,320L812.3,224L849.2,224L849.2,128L886.2,128L886.2,256L923.1,256L923.1,224L960,224L960,96L996.9,96L996.9,0L1033.8,0L1033.8,64L1070.8,64L1070.8,224L1107.7,224L1107.7,64L1144.6,64L1144.6,160L1181.5,160L1181.5,224L1218.5,224L1218.5,256L1255.4,256L1255.4,128L1292.3,128L1292.3,32L1329.2,32L1329.2,32L1366.2,32L1366.2,0L1403.1,0L1403.1,32L1440,32L1440,320L1403.1,320L1403.1,320L1366.2,320L1366.2,320L1329.2,320L1329.2,320L1292.3,320L1292.3,320L1255.4,320L1255.4,320L1218.5,320L1218.5,320L1181.5,320L1181.5,320L1144.6,320L1144.6,320L1107.7,320L1107.7,320L1070.8,320L1070.8,320L1033.8,320L1033.8,320L996.9,320L996.9,320L960,320L960,320L923.1,320L923.1,320L886.2,320L886.2,320L849.2,320L849.2,320L812.3,320L812.3,320L775.4,320L775.4,320L738.5,320L738.5,320L701.5,320L701.5,320L664.6,320L664.6,320L627.7,320L627.7,320L590.8,320L590.8,320L553.8,320L553.8,320L516.9,320L516.9,320L480,320L480,320L443.1,320L443.1,320L406.2,320L406.2,320L369.2,320L369.2,320L332.3,320L332.3,320L295.4,320L295.4,320L258.5,320L258.5,320L221.5,320L221.5,320L184.6,320L184.6,320L147.7,320L147.7,320L110.8,320L110.8,320L73.8,320L73.8,320L36.9,320L36.9,320L0,320L0,320Z"></path></svg>